<svg xmlns="http://www.w3.org/2000/svg" viewBox="0 0 14.72 14.72"><defs><style>.cls-1{fill:#29abe2;}</style></defs><title>Apple app store</title><g id="Layer_2" data-name="Layer 2"><g id="Layer_1-2" data-name="Layer 1"><path class="cls-1" d="M7.36,0a7.36,7.36,0,1,0,7.36,7.36A7.36,7.36,0,0,0,7.36,0Zm0,13.34a6,6,0,1,1,6-6A6,6,0,0,1,7.36,13.34Zm0-8A.2.2,0,0,0,7.26,5l-.5-.29a.19.19,0,0,0-.26.07L5.73,6.16,4.89,7.64l-.7,1.24a.2.2,0,0,0,.07.26l.5.29A.19.19,0,0,0,5,9.37L6,7.64l.63-1.11ZM6.94,6.9,6.18,8.26H8.85L8.17,6.9Zm-2.22,0h-1a.46.46,0,0,0-.46.46V7.8a.46.46,0,0,0,.46.46H3.9ZM4.59,9.66l-.5-.29a.12.12,0,0,0-.19.1l-.09.76c0,.11,0,.14.14.08l.64-.44A.11.11,0,0,0,4.59,9.66Zm5.44-2v0L9.71,7h0l0-.07,0-.05,0,0,0-.08v0l0-.09v0C9.15,6,8.71,5.14,8.44,4.71c-.48-.76-1.11-2-1.29-1.94s.52,1.74.78,2.35a22.25,22.25,0,0,0,1.45,3,.38.38,0,0,0,.41,0C9.92,8.07,10.16,7.89,10,7.66Zm1-.76h-1l.78,1.36h.18a.46.46,0,0,0,.46-.46V7.36A.46.46,0,0,0,11.06,6.9Zm-.46,2-.24-.46a.21.21,0,0,0-.28-.09l-.29.15a.19.19,0,0,0-.07.28l.3.48a.21.21,0,0,0,.29.07l.2-.12A.23.23,0,0,0,10.6,8.86Zm-.07.67a.36.36,0,0,0,0,.54c.21.31.69.32.76.52C11.25,10.59,11.4,9,10.53,9.53Z"/></g></g></svg>