<svg xmlns="http://www.w3.org/2000/svg" viewBox="0 0 498.91 357.4"><defs><style>.cls-1{font-size:20px;font-family:MyriadPro-Regular, Myriad Pro;}.cls-2,.cls-49,.cls-50,.cls-55{fill:gray;}.cls-3{letter-spacing:0.01em;}.cls-4{letter-spacing:-0.01em;}.cls-5{letter-spacing:-0.01em;}.cls-6{letter-spacing:-0.01em;}.cls-7{letter-spacing:0em;}.cls-8{letter-spacing:-0.01em;}.cls-9{letter-spacing:0em;}.cls-10{letter-spacing:-0.01em;}.cls-11{letter-spacing:0.01em;}.cls-12{letter-spacing:-0.04em;}.cls-13{letter-spacing:-0.01em;}.cls-14{letter-spacing:0em;}.cls-15,.cls-50{letter-spacing:0em;}.cls-16{letter-spacing:0.03em;}.cls-17{letter-spacing:0.02em;}.cls-18{letter-spacing:-0.01em;}.cls-19{letter-spacing:0em;}.cls-20{letter-spacing:-0.03em;}.cls-21{letter-spacing:0.02em;}.cls-22{letter-spacing:-0.01em;}.cls-23{letter-spacing:-0.01em;}.cls-24{letter-spacing:0.01em;}.cls-25{letter-spacing:-0.05em;}.cls-26{letter-spacing:-0.01em;}.cls-27{letter-spacing:0.03em;}.cls-28{letter-spacing:-0.08em;}.cls-29{letter-spacing:-0.03em;}.cls-30{letter-spacing:0.02em;}.cls-31{letter-spacing:-0.15em;}.cls-32{letter-spacing:0.01em;}.cls-33{letter-spacing:0em;}.cls-34,.cls-49{letter-spacing:0em;}.cls-35{letter-spacing:0em;}.cls-36{letter-spacing:0.02em;}.cls-37{letter-spacing:-0.07em;}.cls-38{letter-spacing:-0.01em;}.cls-39{fill:#f7931e;}.cls-40{letter-spacing:0.02em;}.cls-41{letter-spacing:-0.08em;}.cls-42{letter-spacing:-0.03em;}.cls-43{letter-spacing:-0.04em;}.cls-44{letter-spacing:-0.05em;}.cls-45{letter-spacing:-0.08em;}.cls-46{letter-spacing:-0.01em;}.cls-47{letter-spacing:-0.11em;}.cls-48{letter-spacing:-0.09em;}.cls-51,.cls-52,.cls-53,.cls-54{font-size:19px;font-family:MyriadPro-It, Myriad Pro;font-style:italic;}.cls-52{letter-spacing:-0.01em;}.cls-53{letter-spacing:0em;}.cls-54{letter-spacing:-0.01em;}.cls-55{font-family:JosefinSans-Thin, Josefin Sans;}.cls-56{letter-spacing:-0.02em;}</style></defs><title>Body content</title><g id="Layer_2" data-name="Layer 2"><g id="Layer_1-2" data-name="Layer 1"><text class="cls-1" transform="translate(214.38 16.74)"><tspan class="cls-2"><tspan class="cls-3">H</tspan><tspan x="13.24" y="0">i the</tspan><tspan class="cls-4" x="49.9" y="0">r</tspan><tspan class="cls-5" x="56.24" y="0">e</tspan><tspan x="66.02" y="0">,</tspan><tspan x="35.08" y="24"></tspan><tspan class="cls-5" x="-210.49" y="48">A</tspan><tspan x="-198.49" y="48">utumn </tspan><tspan class="cls-6" x="-137.81" y="48">g</tspan><tspan x="-126.75" y="48">i</tspan><tspan class="cls-4" x="-122.07" y="48">v</tspan><tspan x="-112.65" y="48">es wi</tspan><tspan class="cls-7" x="-71.07" y="48">n</tspan><tspan class="cls-8" x="-60.05" y="48">t</tspan><tspan x="-53.55" y="48">er an i</tspan><tspan class="cls-9" x="-3.09" y="48">n</tspan><tspan x="7.93" y="48">t</tspan><tspan class="cls-10" x="14.55" y="48">r</tspan><tspan x="20.89" y="48">odu</tspan><tspan class="cls-11" x="54.17" y="48">c</tspan><tspan x="63.39" y="48">tion just like our </tspan><tspan class="cls-12" x="201.49" y="48">F</tspan><tspan x="210.33" y="48">a</tspan><tspan class="cls-7" x="219.97" y="48">n</tspan><tspan x="230.99" y="48">tumn </tspan><tspan class="cls-13" x="-211.36" y="72">g</tspan><tspan x="-200.3" y="72">i</tspan><tspan class="cls-4" x="-195.62" y="72">v</tspan><tspan class="cls-14" x="-186.2" y="72">es </tspan><tspan class="cls-10" x="-164.02" y="72">y</tspan><tspan x="-154.8" y="72">our i</tspan><tspan class="cls-9" x="-117.34" y="72">n</tspan><tspan class="cls-14" x="-106.32" y="72">tuition an i</tspan><tspan class="cls-13" x="-16.72" y="72">g</tspan><tspan class="cls-14" x="-5.66" y="72">nition. </tspan><tspan class="cls-4" x="51.88" y="72">A</tspan><tspan x="63.92" y="72">t </tspan><tspan class="cls-12" x="74.78" y="72">F</tspan><tspan class="cls-15" x="83.62" y="72">a</tspan><tspan class="cls-7" x="93.26" y="72">n</tspan><tspan class="cls-14" x="104.28" y="72">tumn, e</tspan><tspan class="cls-4" x="168.1" y="72">v</tspan><tspan class="cls-14" x="177.52" y="72">e</tspan><tspan class="cls-16" x="187.54" y="72">r</tspan><tspan x="194.58" y="72">y opinion, </tspan><tspan x="-192.41" y="96">e</tspan><tspan class="cls-4" x="-182.39" y="96">v</tspan><tspan class="cls-14" x="-172.97" y="96">e</tspan><tspan class="cls-16" x="-162.95" y="96">r</tspan><tspan x="-155.91" y="96">y p</tspan><tspan class="cls-4" x="-130.87" y="96">r</tspan><tspan class="cls-14" x="-124.53" y="96">edi</tspan><tspan class="cls-11" x="-98.55" y="96">c</tspan><tspan x="-89.33" y="96">tion and e</tspan><tspan class="cls-4" x="-5.43" y="96">v</tspan><tspan x="3.99" y="96">e</tspan><tspan class="cls-17" x="14.01" y="96">r</tspan><tspan x="21.05" y="96">y i</tspan><tspan class="cls-7" x="39.39" y="96">n</tspan><tspan x="50.41" y="96">tuition of </tspan><tspan class="cls-4" x="131.41" y="96">y</tspan><tspan x="140.63" y="96">ours is </tspan><tspan class="cls-6" x="198.17" y="96">g</tspan><tspan class="cls-15" x="209.23" y="96">i</tspan><tspan class="cls-4" x="213.91" y="96">v</tspan><tspan class="cls-14" x="223.33" y="96">en a </tspan><tspan class="cls-4" x="-200.9" y="120">v</tspan><tspan x="-191.48" y="120">oi</tspan><tspan class="cls-13" x="-175.82" y="120">c</tspan><tspan class="cls-14" x="-166.98" y="120">e and a pl</tspan><tspan class="cls-9" x="-86.48" y="120">a</tspan><tspan class="cls-14" x="-76.92" y="120">t</tspan><tspan class="cls-18" x="-70.3" y="120">f</tspan><tspan x="-64.72" y="120">o</tspan><tspan class="cls-19" x="-53.74" y="120">r</tspan><tspan x="-47.12" y="120">m. </tspan><tspan class="cls-20" x="-22.06" y="120">F</tspan><tspan class="cls-10" x="-12.84" y="120">r</tspan><tspan x="-6.5" y="120">om spo</tspan><tspan class="cls-21" x="55.68" y="120">r</tspan><tspan class="cls-14" x="62.7" y="120">ts </tspan><tspan class="cls-13" x="81.48" y="120">t</tspan><tspan x="87.98" y="120">o m</tspan><tspan class="cls-22" x="119.88" y="120">o</tspan><tspan class="cls-15" x="130.72" y="120">vie</tspan><tspan class="cls-23" x="155.04" y="120">s</tspan><tspan x="162.74" y="120">, f</tspan><tspan class="cls-10" x="176.96" y="120">r</tspan><tspan x="183.3" y="120">om </tspan><tspan class="cls-10" x="215.2" y="120">r</tspan><tspan x="221.54" y="120">eali</tspan><tspan class="cls-24" x="250.6" y="120">t</tspan><tspan x="257.4" y="120">y </tspan><tspan x="-193.87" y="144">sh</tspan><tspan class="cls-22" x="-174.85" y="144">o</tspan><tspan class="cls-13" x="-164.01" y="144">w</tspan><tspan x="-149.41" y="144">s </tspan><tspan class="cls-6" x="-137.25" y="144">t</tspan><tspan x="-130.75" y="144">o </tspan><tspan class="cls-6" x="-115.53" y="144">t</tspan><tspan class="cls-14" x="-109.03" y="144">elevision se</tspan><tspan class="cls-19" x="-13.11" y="144">r</tspan><tspan x="-6.49" y="144">ie</tspan><tspan class="cls-23" x="8.21" y="144">s</tspan><tspan x="15.91" y="144">, </tspan><tspan class="cls-25" x="24.29" y="144">F</tspan><tspan class="cls-15" x="33.13" y="144">a</tspan><tspan class="cls-7" x="42.77" y="144">n</tspan><tspan class="cls-14" x="53.79" y="144">tumn </tspan><tspan class="cls-13" x="103.45" y="144">g</tspan><tspan x="114.51" y="144">i</tspan><tspan class="cls-4" x="119.19" y="144">v</tspan><tspan x="128.61" y="144">es </tspan><tspan class="cls-10" x="150.79" y="144">y</tspan><tspan x="160.01" y="144">ou a chan</tspan><tspan class="cls-13" x="240.93" y="144">c</tspan><tspan class="cls-14" x="249.77" y="144">e </tspan><tspan class="cls-6" x="-179.8" y="168">t</tspan><tspan x="-173.3" y="168">o p</tspan><tspan class="cls-10" x="-146.7" y="168">r</tspan><tspan class="cls-14" x="-140.36" y="168">edi</tspan><tspan class="cls-11" x="-114.38" y="168">c</tspan><tspan x="-105.16" y="168">t almost e</tspan><tspan class="cls-4" x="-23.48" y="168">v</tspan><tspan x="-14.06" y="168">e</tspan><tspan class="cls-17" x="-4.04" y="168">r</tspan><tspan x="3" y="168">ythin</tspan><tspan class="cls-26" x="45.92" y="168">g</tspan><tspan x="56.8" y="168">. But nothing is pe</tspan><tspan class="cls-27" x="207.14" y="168">r</tspan><tspan class="cls-18" x="214.28" y="168">f</tspan><tspan x="219.86" y="168">e</tspan><tspan class="cls-11" x="229.88" y="168">c</tspan><tspan class="cls-14" x="239.1" y="168">t </tspan><tspan x="-214.38" y="192">with just</tspan><tspan class="cls-28" x="-142.6" y="192"> </tspan><tspan class="cls-29" x="-140.02" y="192">“</tspan><tspan class="cls-15" x="-133.64" y="192">almos</tspan><tspan class="cls-30" x="-83.7" y="192">t</tspan><tspan class="cls-31" x="-76.66" y="192">”</tspan><tspan x="-72.66" y="192">. </tspan><tspan class="cls-32" x="-64.28" y="192">S</tspan><tspan x="-54.3" y="192">o </tspan><tspan class="cls-13" x="-39.08" y="192">t</tspan><tspan x="-32.58" y="192">o make it pe</tspan><tspan class="cls-27" x="69.54" y="192">r</tspan><tspan class="cls-18" x="76.68" y="192">f</tspan><tspan x="82.26" y="192">e</tspan><tspan class="cls-11" x="92.28" y="192">c</tspan><tspan class="cls-33" x="101.5" y="192">t</tspan><tspan x="108.06" y="192">, </tspan><tspan class="cls-4" x="116.44" y="192">w</tspan><tspan x="130.96" y="192">e </tspan><tspan class="cls-10" x="145.22" y="192">r</tspan><tspan x="151.56" y="192">e</tspan><tspan class="cls-9" x="161.58" y="192">w</tspan><tspan class="cls-15" x="176.22" y="192">a</tspan><tspan class="cls-10" x="185.86" y="192">r</tspan><tspan x="192.2" y="192">d </tspan><tspan class="cls-10" x="207.72" y="192">y</tspan><tspan x="216.94" y="192">ou with </tspan><tspan class="cls-34" x="-201.3" y="216">e</tspan><tspan class="cls-26" x="-191.34" y="216">x</tspan><tspan x="-182.38" y="216">citing p</tspan><tspan class="cls-35" x="-119.54" y="216">r</tspan><tspan class="cls-15" x="-112.92" y="216">i</tspan><tspan class="cls-22" x="-108.24" y="216">z</tspan><tspan x="-99.82" y="216">e</tspan><tspan class="cls-23" x="-89.8" y="216">s</tspan><tspan x="-82.1" y="216">, </tspan><tspan class="cls-6" x="-73.72" y="216">c</tspan><tspan x="-64.88" y="216">oupons and much mo</tspan><tspan class="cls-10" x="118.66" y="216">r</tspan><tspan x="125" y="216">e – and </tspan><tspan class="cls-18" x="189.76" y="216">f</tspan><tspan x="195.34" y="216">or wh</tspan><tspan class="cls-7" x="242.92" y="216">a</tspan><tspan x="252.48" y="216">t? </tspan><tspan class="cls-36" x="1.4" y="240">I</tspan><tspan class="cls-30" x="6.5" y="240">t</tspan><tspan class="cls-37" x="13.54" y="240">’</tspan><tspan x="16.24" y="240">s f</tspan><tspan class="cls-4" x="34.24" y="240">r</tspan><tspan class="cls-14" x="40.58" y="240">e</tspan><tspan class="cls-38" x="50.6" y="240">e</tspan><tspan x="60.38" y="240">. </tspan></tspan><tspan class="cls-39"><tspan class="cls-40" x="-193.66" y="264">“</tspan><tspan class="cls-41" x="-186.2" y="264">Y</tspan><tspan x="-176.9" y="264">ou do</tspan><tspan class="cls-42" x="-128.4" y="264">n</tspan><tspan class="cls-23" x="-117.96" y="264">’</tspan><tspan class="cls-14" x="-114.04" y="264">t i</tspan><tspan class="cls-18" x="-98.5" y="264">n</tspan><tspan class="cls-10" x="-87.66" y="264">v</tspan><tspan x="-78.24" y="264">est </tspan><tspan class="cls-10" x="-49.44" y="264">y</tspan><tspan x="-40.22" y="264">our mone</tspan><tspan class="cls-43" x="41.34" y="264">y</tspan><tspan x="49.98" y="264">.</tspan><tspan class="cls-44" x="54.12" y="264"> </tspan><tspan class="cls-45" x="57.44" y="264">Y</tspan><tspan x="66.74" y="264">ou i</tspan><tspan class="cls-46" x="97.66" y="264">n</tspan><tspan class="cls-4" x="108.5" y="264">v</tspan><tspan class="cls-14" x="117.92" y="264">est </tspan><tspan class="cls-4" x="146.72" y="264">y</tspan><tspan class="cls-14" x="155.94" y="264">our passion</tspan><tspan class="cls-47" x="252.34" y="264">.</tspan><tspan class="cls-48" x="254.22" y="264">”</tspan><tspan class="cls-2" x="259.58" y="264"> </tspan></tspan><tspan class="cls-49" x="-69.12" y="288">A</tspan><tspan class="cls-50" x="-56.94" y="288">nd </tspan><tspan class="cls-51" x="-30.32" y="288">that is whe</tspan><tspan class="cls-52" x="52.17" y="288">r</tspan><tspan class="cls-53" x="58.1" y="288">e </tspan><tspan class="cls-54" x="70.16" y="288">w</tspan><tspan class="cls-51" x="83.44" y="288">e differ</tspan><tspan class="cls-2" x="135.14" y="288">.</tspan><tspan class="cls-55"><tspan x="-60.08" y="336">Just th</tspan><tspan class="cls-56" x="-9.36" y="336">r</tspan><tspan x="-3.24" y="336">ee simple steps -</tspan></tspan></text></g></g></svg>