<svg xmlns="http://www.w3.org/2000/svg" viewBox="0 0 174.98 66.12"><defs><style>.cls-1{font-size:20px;fill:gray;font-family:Roboto-Regular, Roboto;}.cls-2{letter-spacing:-0.02em;}.cls-3{font-size:17px;}.cls-4{letter-spacing:0.01em;}.cls-5{letter-spacing:-0.01em;}.cls-6{letter-spacing:-0.01em;}.cls-7{letter-spacing:-0.01em;}.cls-8{letter-spacing:-0.01em;}.cls-9{fill:#e2574c;}.cls-10{fill:#d65348;}.cls-11{fill:#efc75e;}.cls-12{fill:#e67067;}</style></defs><title>Bottom body content</title><g id="Layer_2" data-name="Layer 2"><g id="Layer_1-2" data-name="Layer 1"><text class="cls-1" transform="translate(54.38 17.11)">Cheers,<tspan class="cls-2" x="-6.26" y="24">F</tspan><tspan x="4.46" y="24">antumn</tspan><tspan class="cls-3"><tspan class="cls-4" x="-54.38" y="44.4">(</tspan><tspan x="-48.42" y="44.4">With L</tspan><tspan class="cls-5" x="-0.93" y="44.4">o</tspan><tspan class="cls-6" x="8.64" y="44.4">v</tspan><tspan x="16.76" y="44.4" xml:space="preserve">e     , </tspan><tspan class="cls-7" x="54.36" y="44.4">F</tspan><tspan x="63.58" y="44.4">or </tspan><tspan class="cls-8" x="83.24" y="44.4">y</tspan><tspan x="91.15" y="44.4">ou.)</tspan></tspan></text><path class="cls-9" d="M83.66,49.12c2.82-2.86,5.59-1.6,7.83.43,2.23-2,5-3.31,7.83-.43a5.74,5.74,0,0,1,0,8.09c-3.72,3.41-5.67,5.18-6.69,6.11a1.66,1.66,0,0,1-2.24,0l-6.74-6.11A5.74,5.74,0,0,1,83.66,49.12Z"/><path class="cls-10" d="M91.49,49.55V63.76a1.77,1.77,0,0,0,1.14-.43c1-.93,3-2.7,6.69-6.11a5.74,5.74,0,0,0,0-8.09C96.49,46.24,93.72,47.52,91.49,49.55Z"/><path class="cls-11" d="M96.54,48.78a2.28,2.28,0,0,0,2.23-2.23A2.28,2.28,0,0,0,101,48.78,2.28,2.28,0,0,0,98.76,51,2.28,2.28,0,0,0,96.54,48.78Z"/><path class="cls-12" d="M84.08,53a3.48,3.48,0,0,1,3.47-3.47.39.39,0,1,1,0,.77A2.68,2.68,0,0,0,84.86,53a.38.38,0,0,1-.39.39A.37.37,0,0,1,84.08,53Z"/></g></g></svg>