<svg xmlns="http://www.w3.org/2000/svg" xmlns:xlink="http://www.w3.org/1999/xlink" viewBox="0 0 154.22 154.22"><defs><style>.cls-1{fill:#f1f1f2;}.cls-2{fill:url(#linear-gradient);}</style><linearGradient id="linear-gradient" x1="50.56" y1="81.44" x2="110.16" y2="81.44" gradientUnits="userSpaceOnUse"><stop offset="0" stop-color="#26c2e7"/><stop offset="1" stop-color="#68c3a7"/></linearGradient></defs><title>Center Symbol</title><g id="Layer_2" data-name="Layer 2"><g id="Layer_1-2" data-name="Layer 1"><circle class="cls-1" cx="77.11" cy="77.11" r="77.11"/><path class="cls-2" d="M73.65,38.64l23.7.73,12.45-.24a25.7,25.7,0,0,1,.36,4.84,8,8,0,0,1-.91,4.35,3.46,3.46,0,0,1-3.08,1.33q-2.18,0-9.25-.6t-10.46-.61l-4.35.24q-.48,4.6-5.8,29.38,9.19-.84,15.35-.85a36.58,36.58,0,0,1,9.55,1A20.41,20.41,0,0,1,99,86.88a60.94,60.94,0,0,0-12.33-1.09,85.26,85.26,0,0,0-12.09.73q-4.47,21.88-4.47,33.25v2.06q-4.35,2.42-18.38,2.42H50.56q0-8.22,5.62-34.21T63,52.66A11.89,11.89,0,0,0,61.8,48a21,21,0,0,0-2.54-4.41L58.05,41.9l.36-1.81A83.05,83.05,0,0,1,73.65,38.64Z"/></g></g></svg>