<svg xmlns="http://www.w3.org/2000/svg" viewBox="0 0 14.66 15.69"><defs><style>.cls-1{fill:#349886;}.cls-2{fill:#3db39e;}.cls-3{fill:#f4b459;}.cls-4{fill:#e2574c;}</style></defs><title>Google Play</title><g id="Layer_2" data-name="Layer 2"><g id="Layer_1-2" data-name="Layer 1"><path class="cls-1" d="M.06.74A1.53,1.53,0,0,0,0,1.18V14.51a1.56,1.56,0,0,0,.06.43L7.7,7.85Z"/><path class="cls-2" d="M10.69,5.08,1.77.22A1.33,1.33,0,0,0,.77,0L8.44,7.17Z"/><path class="cls-3" d="M14,6.88,11.6,5.58,9.16,7.84l2.48,2.31L14,8.91A1.09,1.09,0,0,0,14,6.88Z"/><path class="cls-4" d="M.75,15.65a1.32,1.32,0,0,0,1-.18l8.95-4.81L8.43,8.52Z"/></g></g></svg>