<svg xmlns="http://www.w3.org/2000/svg" viewBox="0 0 18.99 17.21"><defs><style>.cls-1{fill:#e2574c;}.cls-2{fill:#d65348;}.cls-3{fill:#efc75e;}.cls-4{fill:#e67067;}</style></defs><title>Heart</title><g id="Layer_2" data-name="Layer 2"><g id="Layer_1-2" data-name="Layer 1"><path class="cls-1" d="M1.66,2.57C4.48-.3,7.26,1,9.5,3c2.23-2,5-3.31,7.83-.43a5.74,5.74,0,0,1,0,8.09c-3.72,3.41-5.67,5.18-6.69,6.11a1.66,1.66,0,0,1-2.24,0L1.66,10.65A5.74,5.74,0,0,1,1.66,2.57Z"/><path class="cls-2" d="M9.49,3V17.21a1.77,1.77,0,0,0,1.14-.43c1-.93,3-2.7,6.69-6.11a5.74,5.74,0,0,0,0-8.09C14.49-.31,11.72,1,9.49,3Z"/><path class="cls-3" d="M14.54,2.23A2.28,2.28,0,0,0,16.77,0,2.28,2.28,0,0,0,19,2.23a2.28,2.28,0,0,0-2.23,2.23A2.28,2.28,0,0,0,14.54,2.23Z"/><path class="cls-4" d="M2.08,6.44A3.48,3.48,0,0,1,5.55,3a.39.39,0,1,1,0,.77A2.68,2.68,0,0,0,2.87,6.42a.38.38,0,0,1-.39.39A.37.37,0,0,1,2.08,6.44Z"/></g></g></svg>