<svg xmlns="http://www.w3.org/2000/svg" viewBox="0 0 30 30"><defs><style>.cls-1{fill:#e6e6e6;}</style></defs><title>Intuition Symbol (From of tag line)</title><g id="Layer_2" data-name="Layer 2"><g id="Layer_1-2" data-name="Layer 1"><path class="cls-1" d="M18.39,4a.47.47,0,0,0,.55-.77l-.05,0a.47.47,0,0,0-.55.77Z"/><path class="cls-1" d="M14.53,7.11v4.24a1.35,1.35,0,0,0,.92,1.28l4.64,1.55h.23l.07,0h0L25,12.63A1.34,1.34,0,0,0,26,11.36V7.09a1.35,1.35,0,0,0-1.77-1.28L20.24,7.12,16.3,5.81A1.33,1.33,0,0,0,15,6,1.38,1.38,0,0,0,14.53,7.11ZM20.74,8l3.75-1.25a.4.4,0,0,1,.39.08.41.41,0,0,1,.13.31v4.24a.4.4,0,0,1-.27.38l-4,1.33Zm-1,5.1-4-1.33a.4.4,0,0,1-.27-.38V7.11a.41.41,0,0,1,.13-.31A.4.4,0,0,1,16,6.72L19.75,8Z"/><path class="cls-1" d="M20.8,3.42a.47.47,0,0,0,.55-.77l-.05,0a.47.47,0,0,0-.55.77Z"/><path class="cls-1" d="M19.7,5a.47.47,0,0,0,.55-.77l-.05,0a.47.47,0,0,0-.55.77Z"/><path class="cls-1" d="M14.43,16.41h0a.48.48,0,0,0-.49.44.47.47,0,0,0,.47.5h0a.48.48,0,0,0,.49-.44A.47.47,0,0,0,14.43,16.41Z"/><path class="cls-1" d="M3.74,14.64A7.74,7.74,0,1,1,15.55,5.11a.47.47,0,0,0,.84-.44A8.69,8.69,0,1,0,3.14,15.36a.47.47,0,1,0,.61-.73Z"/><path class="cls-1" d="M8.05,8.5h0a.48.48,0,0,0,.49-.44.47.47,0,0,0-.47-.5h0A.48.48,0,0,0,7.59,8,.47.47,0,0,0,8.05,8.5Z"/><path class="cls-1" d="M18.38,19.29a.47.47,0,0,0-.63.24A6.47,6.47,0,1,1,6.42,13.36a.47.47,0,0,0-.79-.52,7.42,7.42,0,1,0,13,7.07A.47.47,0,0,0,18.38,19.29Z"/><path class="cls-1" d="M6.79,25.26a2.37,2.37,0,1,0,2.37,2.37A2.37,2.37,0,0,0,6.79,25.26Zm0,3.79a1.42,1.42,0,1,1,1.42-1.42A1.42,1.42,0,0,1,6.79,29.05Z"/><path class="cls-1" d="M20.68,0a9.3,9.3,0,0,0-4.76,1.31.47.47,0,1,0,.48.81,8.37,8.37,0,1,1,.09,14.45.47.47,0,1,0-.47.82A9.32,9.32,0,1,0,20.68,0Z"/><path class="cls-1" d="M14.43,18.34h0a.48.48,0,0,0-.49.44.47.47,0,0,0,.47.5h0a.48.48,0,0,0,.49-.44A.47.47,0,0,0,14.43,18.34Z"/><path class="cls-1" d="M5,11.17a2.22,2.22,0,0,0,3.12,0,2.22,2.22,0,0,0,3.14-3.14A2.22,2.22,0,0,0,8.08,4.91,2.22,2.22,0,0,0,4.94,8.05,2.23,2.23,0,0,0,5,11.17Zm.67-.67a1.28,1.28,0,0,1,0-1.78l1.8,1.8A1.28,1.28,0,0,1,5.64,10.5Zm4.9,0a1.28,1.28,0,0,1-1.78,0l1.8-1.8A1.28,1.28,0,0,1,10.53,10.5Zm0-4.9a1.28,1.28,0,0,1,0,1.78l-1.8-1.8A1.28,1.28,0,0,1,10.53,5.6ZM9.89,8.05l-1.8,1.8-1.8-1.8,1.8-1.8ZM5.64,5.6a1.28,1.28,0,0,1,1.78,0l-1.8,1.8A1.28,1.28,0,0,1,5.64,5.6Z"/><path class="cls-1" d="M15.43,14.33a.48.48,0,0,0-.49-.44h-1.8a1.41,1.41,0,0,0-1.34,1l-1.44,4.32a.49.49,0,0,1-.4.34.47.47,0,0,1-.47-.25L7.88,16.18a.47.47,0,0,0-.83.44l1.61,3.07a1.41,1.41,0,0,0,2.59-.21l1.44-4.33a.48.48,0,0,1,.45-.33H15A.47.47,0,0,0,15.43,14.33Z"/><path class="cls-1" d="M3.69,12h0a.48.48,0,0,0-.49.44.47.47,0,0,0,.47.5h0a.48.48,0,0,0,.49-.44A.47.47,0,0,0,3.69,12Z"/><path class="cls-1" d="M9.38,15.47a.47.47,0,0,0,.47-.5.48.48,0,0,0-.49-.44h0a.48.48,0,0,0-.49.44.47.47,0,0,0,.47.5h.06Z"/></g></g></svg>