<svg xmlns="http://www.w3.org/2000/svg" viewBox="0 0 341.87 106.11"><defs><style>.cls-1{fill:#ffdaae;}.cls-2{fill:#54ba9d;}.cls-3{fill:#000001;}.cls-4{fill:#4cdbc4;}.cls-10,.cls-11,.cls-12,.cls-4,.cls-5,.cls-6,.cls-7,.cls-8,.cls-9{stroke:#000;stroke-miterlimit:10;}.cls-5{fill:#e6e9ee;}.cls-6{fill:#ced5e0;}.cls-7{fill:#324a5e;}.cls-8{fill:#ffd05b;}.cls-9{fill:#ff7058;}.cls-10{fill:#f9b54c;}.cls-11{fill:#2b3b4e;}.cls-12{fill:#2c9984;}.cls-13{fill:#ff0c38;}.cls-14{fill:#d80027;}.cls-15{fill:#a5001e;}.cls-16{fill:#f490c0;}.cls-17{fill:#f072ae;}.cls-18{fill:#f7afd1;}.cls-19{fill:#ff728b;}.cls-20{font-size:18px;fill:#4d4d4d;font-family:MyriadPro-Regular, Myriad Pro;}.cls-21{letter-spacing:-0.02em;}.cls-22{letter-spacing:0em;}.cls-23{letter-spacing:-0.01em;}.cls-24{letter-spacing:0em;}.cls-25{letter-spacing:-0.01em;}.cls-26{letter-spacing:-0.01em;}.cls-27{letter-spacing:-0.02em;}.cls-28{letter-spacing:0em;}.cls-29{letter-spacing:-0.01em;}</style></defs><title>Three simple steps</title><g id="Layer_2" data-name="Layer 2"><g id="Layer_1-2" data-name="Layer 1"><path class="cls-1" d="M62,21.34v-14H34.64v14a2.78,2.78,0,0,0,2.74,2.8h21.9A2.78,2.78,0,0,0,62,21.34Z"/><path class="cls-2" d="M59.27,24.14H37.38a2.78,2.78,0,0,1-2.74-2.8v-14H26.43a2.78,2.78,0,0,0-2.74,2.8V41.77H40.11a8.21,8.21,0,1,1,16.42,0H73V10.14a2.78,2.78,0,0,0-2.74-2.8H62v14A2.78,2.78,0,0,1,59.27,24.14Z"/><path class="cls-1" d="M56.49,41.77a8.21,8.21,0,1,0-16.42,0Z"/><path class="cls-1" d="M56.49,41.77H40.07a8.21,8.21,0,1,0,16.42,0Z"/><path class="cls-2" d="M56.54,41.77a8.21,8.21,0,1,1-16.42,0H23.69V73.41a2.78,2.78,0,0,0,2.74,2.8h8.21v-14a2.78,2.78,0,0,1,2.74-2.8H59.27A2.78,2.78,0,0,1,62,62.21v14h8.21A2.78,2.78,0,0,0,73,73.41V41.77Z"/><path class="cls-1" d="M59.27,59.41H37.38a2.78,2.78,0,0,0-2.74,2.8v14H62v-14A2.78,2.78,0,0,0,59.27,59.41Z"/><path class="cls-3" d="M70.22,5.94H26.43a4.15,4.15,0,0,0-4.1,4.2V73.41a4.15,4.15,0,0,0,4.11,4.2H70.22a4.15,4.15,0,0,0,4.11-4.2V10.14A4.15,4.15,0,0,0,70.22,5.94Zm-9.58,5.6H57.76a1.41,1.41,0,0,0-1.4,1.19,1.39,1.39,0,0,0,1.35,1.61h2.93v7a1.38,1.38,0,0,1-1.37,1.4H37.38A1.38,1.38,0,0,1,36,21.34V8.74H60.64v2.8ZM26.43,8.74h6.84v12.6a4.15,4.15,0,0,0,4.11,4.2H59.27a4.15,4.15,0,0,0,4.11-4.2V8.74h6.84a1.38,1.38,0,0,1,1.37,1.4V40.37H57.8a9.55,9.55,0,0,0-19,0H25.06V10.14A1.38,1.38,0,0,1,26.43,8.74ZM41.57,40.37a6.81,6.81,0,0,1,13.41,0ZM55,43.17a6.81,6.81,0,0,1-13.41,0ZM36,72h2.84a1.41,1.41,0,0,0,1.4-1.19,1.39,1.39,0,0,0-1.35-1.61H36v-7a1.38,1.38,0,0,1,1.37-1.4H59.27a1.38,1.38,0,0,1,1.37,1.4v12.6H36Zm34.21,2.8H63.38V62.21A4.15,4.15,0,0,0,59.27,58H37.38a4.15,4.15,0,0,0-4.11,4.2v12.6H26.43a1.38,1.38,0,0,1-1.37-1.4V43.17H38.85a9.55,9.55,0,0,0,19,0H71.59V73.41A1.38,1.38,0,0,1,70.22,74.81Z"/><path class="cls-3" d="M42.8,69.21h0a1.36,1.36,0,0,0-1.31,1A1.4,1.4,0,0,0,42.77,72h0a1.36,1.36,0,0,0,1.31-1A1.4,1.4,0,0,0,42.8,69.21Z"/><path class="cls-3" d="M53.75,14.34h0a1.36,1.36,0,0,0,1.31-1,1.4,1.4,0,0,0-1.3-1.85h0a1.36,1.36,0,0,0-1.31,1A1.4,1.4,0,0,0,53.75,14.34Z"/><path class="cls-4" d="M171.33,36.77l-.39-.28-1.73-1.17,1.4-4.47a110.51,110.51,0,0,0-2-11.63s-2.57,5.87-3.3,16.27a4.42,4.42,0,0,0,1.29,3.47,19.88,19.88,0,0,0,3.8,3.08c.28.17.62.39,1,.56V36.77Z"/><circle class="cls-5" cx="169.27" cy="36.99" r="5.93"/><path class="cls-5" d="M175.2,37a6,6,0,0,1-2.68,5,5.77,5.77,0,0,1-1.68.78,7,7,0,0,1-1.57.22,5.93,5.93,0,0,1,0-11.85A5.78,5.78,0,0,1,175.2,37Z"/><polygon class="cls-6" points="166.98 40.08 166.87 40.08 167.48 36.12 167.65 36 167.7 36.12 167.59 36.17 166.98 40.08"/><path class="cls-6" d="M171.7,39.45l-3.47,1.79,2.57,1.45a5.77,5.77,0,0,0,1.68-.78c.11-.39.5-2.07.5-2.12v-.06Zm.7,2.46-1.29.62c-.06,0-.11.06-.17.06l-2.4-1.34,3.19-1.68,1.17.28C172.74,40.74,172.46,41.74,172.4,41.91Z"/><path class="cls-6" d="M172.79,38.33l-4.19-2.74.28-1.51L172,32.3l1.4,1.12-.11,3.13Zm-4-2.8,4,2.57.39-1.62.17-3-1.29-1-3,1.73Z"/><path class="cls-6" d="M166.49,31.74c-.06,0-.06.06-.11.06l1,1.79-.22,1.4L163.53,36l-.11-.06v.11l.11.06L167.28,35l.22-1.57Z"/><path class="cls-7" d="M174.08,33.53l-.67.5-2.12-1.29-.45-1.23.5-.11A5.41,5.41,0,0,1,174.08,33.53Z"/><polygon class="cls-7" points="173.29 36.43 174.3 37.94 173.01 40.23 171.28 39.79 171.5 37.38 173.29 36.43"/><path class="cls-7" d="M172.85,41.69a5.93,5.93,0,0,1-2.07,1l-.11-.11,1.9-1.23Z"/><polygon class="cls-7" points="167.12 33.3 169.52 33.86 169.52 36.21 167.4 37.16 165.94 35.43 167.12 33.3"/><rect class="cls-6" x="164.64" y="37.64" width="0.11" height="3.13" transform="translate(14.04 116.45) rotate(-40.53)"/><path class="cls-7" d="M164.09,36l-.17,2.35-.39-.06a6,6,0,0,1-.17-1.4,3.44,3.44,0,0,1,.06-.78V36a6.76,6.76,0,0,1,.28-1Z"/><polygon class="cls-7" points="166.98 39.62 168.93 40.85 168.49 42.25 166.31 42.14 165.41 40.23 166.98 39.62"/><path class="cls-8" d="M179,18.26Z"/><path class="cls-8" d="M181.22,11.19l-2.16-.11h0l-2.16.11a7.23,7.23,0,0,1-.78,3.66v2.44l2.94.94h0l2.83-.89V14.63A7.09,7.09,0,0,1,181.22,11.19Z"/><polygon class="cls-8" points="179.05 18.32 179.05 18.32 179 18.32 179.05 18.32"/><path class="cls-8" d="M179,18.26Z"/><path class="cls-8" d="M181.89,14.63v2.72l-2.83.89h0l-2.94-.94V14.85a5.66,5.66,0,0,0,.5-1.22,7.12,7.12,0,0,0,.28-2.44l2.16-.11h0l2.16.11a6.78,6.78,0,0,0,.28,2.39A5,5,0,0,0,181.89,14.63Z"/><polygon class="cls-8" points="179.05 18.32 179.05 18.32 179 18.32 179.05 18.32"/><polygon class="cls-9" points="170.41 46.35 170.24 50.59 170.63 64.82 177.94 64.82 179 56.23 180.11 64.82 187.42 64.82 187.81 50.59 187.65 46.35 170.41 46.35"/><path class="cls-4" d="M192.81,35.48c-.67-10.4-3.24-16.27-3.24-16.27a99.57,99.57,0,0,0-2,11.69l1.4,4.47-1.73,1.17-.28.17v5.87c.28-.17.56-.34.78-.5a24.76,24.76,0,0,0,3.8-3.08A4.79,4.79,0,0,0,192.81,35.48Z"/><path class="cls-10" d="M181.46,13.56l-.17.22a2.49,2.49,0,0,1-1.57.89l-.39.06a1.36,1.36,0,0,1-.67,0l-.39-.06a2.49,2.49,0,0,1-1.57-.89l-.17-.17a7.17,7.17,0,0,0,.28-2.46L179,11h0l2.18.11A12.67,12.67,0,0,0,181.46,13.56Z"/><path class="cls-8" d="M178.94,4.14H174.8l.73,7a2.4,2.4,0,0,0,.56,1.34l.56.67a2.49,2.49,0,0,0,1.57.89l.39.06a1.36,1.36,0,0,0,.67,0l.39-.06a2.49,2.49,0,0,0,1.57-.89l.56-.67a2.4,2.4,0,0,0,.56-1.34l.73-7Z"/><path class="cls-8" d="M183.58,8.2c-.22.5-.67.84-1,.73s-.5-.67-.28-1.23.67-.84,1-.73A1,1,0,0,1,183.58,8.2Z"/><path class="cls-8" d="M174.36,8.2c.22.5.67.84,1,.73s.5-.67.28-1.23-.67-.84-1-.73A1,1,0,0,0,174.36,8.2Z"/><path class="cls-7" d="M175.59,2.55s3.35-5,8.05.67l-.5-.17s.89,1,.11,4.14c0,0-.5.06-.67,1.17,0,0-.11-2.63-.78-3.13,0,0-4.42.28-5.54-.73a6.86,6.86,0,0,0-.67,4.42s-.84-1.62-1.29-2.52a4.14,4.14,0,0,1-.5-2C173.85,3.56,174.19,2.55,175.59,2.55Z"/><path class="cls-7" d="M186.93,81.8h-4.71v2a.62.62,0,0,0,.62.62h6.31v-.29A2.24,2.24,0,0,0,186.93,81.8Z"/><path class="cls-11" d="M171.15,81.8H176v2a.62.62,0,0,1-.62.62h-6.48V84.1A2.29,2.29,0,0,1,171.15,81.8Z"/><polygon class="cls-8" points="185.68 64.98 180.5 64.98 182.39 81.8 185.68 81.8 185.68 64.98"/><polygon class="cls-8" points="172.32 64.98 177.5 64.98 175.61 81.8 172.32 81.8 172.32 64.98"/><polygon class="cls-5" points="181.01 70.09 182.36 81.8 185.68 81.8 185.68 70.09 181.01 70.09"/><polygon class="cls-5" points="172.32 70.09 172.32 81.8 175.64 81.8 176.94 70.09 172.32 70.09"/><polygon class="cls-9" points="185.68 74.71 185.68 74.05 181.87 74.05 181.98 74.71 185.68 74.71"/><polygon class="cls-9" points="176.03 74.71 176.13 74.05 172.32 74.05 172.32 74.71 176.03 74.71"/><polygon class="cls-9" points="185.68 73.56 185.68 72.57 181.2 72.57 181.26 73.56 185.68 73.56"/><polygon class="cls-9" points="176.69 73.56 176.81 72.57 172.32 72.57 172.32 73.56 176.69 73.56"/><path class="cls-12" d="M187.44,30.86c.83-6.65,1.94-11.69,1.94-11.69-1.89-2.46-7.66-4.81-7.66-4.81h0v.06a2.8,2.8,0,0,1-5.44,0v-.06h0s-5.72,2.35-7.66,4.81c0,0,1.11,5,1.94,11.69.67,5.42-.28,9.9-.17,15.66h17.16C187.72,40.7,186.77,36.28,187.44,30.86Z"/><circle class="cls-5" cx="183.13" cy="24.36" r="2.24"/><path class="cls-13" d="M318.16,33.57s6.94,10.32,16.59,16.1a1.56,1.56,0,0,1-.33,2.82l-4.27,1.39,1.28,4.26a1.56,1.56,0,0,1-2.4,1.71A36.34,36.34,0,0,1,314.3,37.19Z"/><path class="cls-13" d="M287.69,33.57s-6.94,10.32-16.59,16.1a1.56,1.56,0,0,0,.33,2.82l4.27,1.39-1.28,4.26a1.56,1.56,0,0,0,2.4,1.71,36.34,36.34,0,0,0,14.72-22.66Z"/><path class="cls-14" d="M276.77,59.88l.05,0a36.34,36.34,0,0,0,14.72-22.66l-3.86-3.62a65.32,65.32,0,0,1-7,8.41A85.2,85.2,0,0,1,276.77,59.88Z"/><path class="cls-14" d="M329.08,59.88l-.05,0A36.34,36.34,0,0,1,314.3,37.19l3.86-3.62a65.32,65.32,0,0,0,7,8.41A85.2,85.2,0,0,0,329.08,59.88Z"/><path class="cls-14" d="M302.25,30.32c2.58,2.7,12-2.16,14.75-4.75a6.77,6.77,0,0,0-9.36-9.78C304.94,18.38,299.66,27.62,302.25,30.32Zm3.42-3.27a17.39,17.39,0,0,1,1.38-3.48,20.41,20.41,0,0,1,3.3-4.94,3,3,0,0,1,4,.09,2.84,2.84,0,0,1-.09,4A23.63,23.63,0,0,1,305.67,27.06Z"/><path class="cls-15" d="M308.05,26.3a14.85,14.85,0,0,1-2.38.75,17.39,17.39,0,0,1,1.38-3.48,8.35,8.35,0,0,0-.58-2.17c-.38-.84-.8-1.69-1.26-2.51-2.47,3.81-4.89,9.42-3,11.43,1.05,1.1,3.25.94,5.66.2A9.16,9.16,0,0,0,308.05,26.3Z"/><path class="cls-13" d="M298.21,15.8a6.77,6.77,0,0,0-9.36,9.78c2.7,2.58,12.16,7.45,14.75,4.75S300.91,18.38,298.21,15.8Zm-6.64,6.94a2.84,2.84,0,0,1-.09-4,3,3,0,0,1,4-.09,20.41,20.41,0,0,1,3.3,4.94,17.39,17.39,0,0,1,1.38,3.48A23.63,23.63,0,0,1,291.57,22.74Z"/><path class="cls-16" d="M318.64,68.92H287.26a4.11,4.11,0,0,1-4.11-4.11V26.7h39.59v38.1A4.11,4.11,0,0,1,318.64,68.92Z"/><rect class="cls-17" x="283.16" y="37.19" width="39.59" height="7.08"/><path class="cls-18" d="M324.45,37.19H281.32a3,3,0,0,1-3-3V29.72a3,3,0,0,1,3-3h43.13a3,3,0,0,1,3,3v4.47A3,3,0,0,1,324.45,37.19Z"/><rect class="cls-13" x="297.18" y="26.7" width="11.54" height="42.21"/><rect class="cls-14" x="297.18" y="37.19" width="11.54" height="7.08"/><rect class="cls-19" x="297.18" y="26.7" width="11.54" height="10.49"/><path d="M335.11,48.78a52.45,52.45,0,0,1-11.44-9.91v-.76h4a.76.76,0,0,0,.76-.76V29.68s-1.72-4-3.92-4h-6.23A7.74,7.74,0,0,0,307,15.09a25.09,25.09,0,0,0-4,5.78,25.42,25.42,0,0,0-4-5.78,7.83,7.83,0,0,0-1.07-.86,1,1,0,0,0-1.09,1.64,5.83,5.83,0,0,1,.8.64c1.54,1.47,5.32,9.28,5.32,9.28h-2.38a21.34,21.34,0,0,0-1.1-2.52,20.79,20.79,0,0,0-3.48-5.15,3.92,3.92,0,0,0-5.3.14,3.77,3.77,0,0,0,.12,5.33A16.91,16.91,0,0,0,294,25.79h-3.63a10.48,10.48,0,0,1-1-.81,5.71,5.71,0,0,1,3.83-9.83,1,1,0,0,0,1-.86,1,1,0,0,0-1-1.08,7.65,7.65,0,0,0-5.72,12.58h-6.09a4,4,0,0,0-4,4v4.33a4,4,0,0,0,4,4h.72v.83a51.36,51.36,0,0,1-11.51,9.89,2.54,2.54,0,0,0,.53,4.59l3.36,1.09-1,3.34a2.51,2.51,0,0,0,1,2.8,2.52,2.52,0,0,0,3,0c1-.7,2-1.47,2.9-2.28A1,1,0,0,0,279,56.88c-.89.77-1.81,1.5-2.75,2.17a.56.56,0,0,1-.68,0,.55.55,0,0,1-.22-.63l1.28-4.26a1,1,0,0,0-.64-1.22l-4.27-1.39a.56.56,0,0,1-.4-.49.55.55,0,0,1,.27-.55,55.5,55.5,0,0,0,10.63-8.68V64.74c-.08,2.81,5,5.09,5,5.09h35.45a1,1,0,0,0,1-1V56.61a38.5,38.5,0,0,0,4.71,4,2.5,2.5,0,0,0,1.47.48,2.83,2.83,0,0,0,2.64-2.23.49.49,0,0,0,0-.28l-1.22-4.12,3.32-1.1a2.56,2.56,0,0,0,.52-4.6Zm-8.56-19.14v4.47a2,2,0,0,1-2,2H309.77V27.62h14.75A2,2,0,0,1,326.55,29.64Zm-18.88-2v8.52H298.1V27.62h9.57Zm-.46-2c.2-.49.44-1,.72-1.55A19.88,19.88,0,0,1,311,19.37a1.81,1.81,0,0,1,1.23-.49,2.25,2.25,0,0,1,1.41.53,1.85,1.85,0,0,1-.06,2.62A23,23,0,0,1,307.21,25.57ZM304,23.09a25.21,25.21,0,0,1,4.32-6.6,5.78,5.78,0,0,1,8,8.36,10.6,10.6,0,0,1-1,.82h-3.67a17,17,0,0,0,3.3-2.24,3.82,3.82,0,0,0,.12-5.4,4.12,4.12,0,0,0-2.15-1.08,3.72,3.72,0,0,0-3.22.94,21.07,21.07,0,0,0-3.52,5.22c-.46.9-1.28,2.55-1.28,2.55A19.52,19.52,0,0,0,304,23.09Zm-11.8-3.68a2.25,2.25,0,0,1,1.41-.53,1.81,1.81,0,0,1,1.23.49A19.89,19.89,0,0,1,297.92,24c.29.58.55,1.13.76,1.65-.09-.09-5.51-2.77-6.42-3.65A1.85,1.85,0,0,1,292.19,19.41Zm-12.84,14.7V29.65a2,2,0,0,1,2-2h14.75v8.52H281.38A2,2,0,0,1,279.35,34.11Zm4.72,30.63V38.11h12.06V67.87H287.2A3.13,3.13,0,0,1,284.07,64.74Zm34.5,3.13h-8.94V55a1,1,0,0,0-.86-1,1,1,0,0,0-1.11,1V67.87H298.1V38.11h9.57V50.45a1,1,0,0,0,.86,1,1,1,0,0,0,1.11-1V38.11H321.7V64.74A3.13,3.13,0,0,1,318.57,67.87Zm15.91-16.8a.56.56,0,0,1-.4.49l-4.27,1.39a1,1,0,0,0-.64,1.22l1.28,4.26a.55.55,0,0,1-.22.63.56.56,0,0,1-.68,0,36.9,36.9,0,0,1-5.9-5.25v-12a51.27,51.27,0,0,0,10.55,8.68A.55.55,0,0,1,334.48,51.06Z"/><text class="cls-20" transform="translate(0 101.61)"><tspan class="cls-21">P</tspan><tspan x="9.29" y="0" xml:space="preserve">ick  a m</tspan><tspan class="cls-22" x="65.14" y="0">a</tspan><tspan class="cls-23" x="73.75" y="0">t</tspan><tspan class="cls-24" x="79.6" y="0">ch</tspan></text><text class="cls-20" transform="translate(121.6 101.61)">Build <tspan class="cls-25" x="42.1" y="0">y</tspan><tspan x="50.4" y="0">our </tspan><tspan class="cls-26" x="79.9" y="0">t</tspan><tspan x="85.75" y="0">eam</tspan></text><text class="cls-20" transform="translate(264.78 101.61)"><tspan class="cls-27">W</tspan><tspan x="14.94" y="0">in p</tspan><tspan class="cls-28" x="43.2" y="0">r</tspan><tspan x="49.16" y="0">i</tspan><tspan class="cls-29" x="53.37" y="0">z</tspan><tspan x="60.95" y="0">es</tspan></text></g></g></svg>